# Created by MKDS Course Modifier
mtllib Mr. Pokémon's House.mtl
g polygon0
usemtl h_mado
v 19 26 17
v 7 26 17
v 7 16 17
v 19 16 17
vn 0 0 0.9980469
vn 0 0 0.9980469
vn 0 0 0.9980469
vn 0 0 0.9980469
vt 1 0
vt 0 0
vt 0 -1
vt 1 -1
f 1/1/1 2/2/2 3/3/3 4/4/4
g polygon1
usemtl h_kage
v -20 1 32
v 30.80469 1 32
v -20 1 20
v 30.80469 1 20
v -20 1 -16
v 30.80469 1 -16
v -20 1 -26
v 30.80469 1 -26
vn 0 0.9980469 0
vn 0 0.9980469 0
vn 0 0.9980469 0
vn 0 0.9980469 0
vn 0 0.9980469 0
vn 0 0.9980469 0
vn 0 0.9980469 0
vn 0 0.9980469 0
vt 0.1796875 0
vt 0.7109375 0
vt 0.1796875 0.3046875
vt 0.7109375 0.3046875
vt 0.1796875 0.7421875
vt 0.7109375 0.7421875
vt 0.1796875 1
vt 0.7109375 1
f 5/5/5 6/6/6 7/7/7
f 6/6/6 8/8/8 7/7/7
f 7/7/7 8/8/8 9/9/9
f 8/8/8 10/10/10 9/9/9
f 9/9/9 10/10/10 11/11/11
f 10/10/10 12/12/12 11/11/11
v 30.80469 1 32
v 40 1 32
v 30.80469 1 20
v 40 1 20
v 30.80469 1 -16
v 40 1 -16
vn 0 0.9980469 0
vn 0 0.9980469 0
vn 0 0.9980469 0
vn 0 0.9980469 0
vn 0 0.9980469 0
vn 0 0.9980469 0
vt 0.7109375 0
vt 1 0
vt 0.7109375 0.3046875
vt 1 0.3046875
vt 0.7109375 0.7421875
vt 1 0.7421875
f 13/13/13 14/14/14 15/15/15
f 14/14/14 16/16/16 15/15/15
f 15/15/15 16/16/16 17/17/17
f 16/16/16 18/18/18 17/17/17
v -32 1 20
v -20 1 20
v -32 1 -16
v -20 1 -16
v -32 1 -26
v -20 1 -26
vn 0 0.9980469 0
vn 0 0.9980469 0
vn 0 0.9980469 0
vn 0 0.9980469 0
vn 0 0.9980469 0
vn 0 0.9980469 0
vt 0 0.3046875
vt 0.1796875 0.3046875
vt 0 0.7421875
vt 0.1796875 0.7421875
vt 0 1
vt 0.1796875 1
f 19/19/19 20/20/20 21/21/21
f 20/20/20 22/22/22 21/21/21
f 21/21/21 22/22/22 23/23/23
f 22/22/22 24/24/24 23/23/23
v 30.80469 1 -26
v 30.80469 1 -16
v 40 1 -16
v -32 1 20
v -20 1 32
v -20 1 20
vn 0 0.9980469 0
vn 0 0.9980469 0
vn 0 0.9980469 0
vn 0 0.9980469 0
vn 0 0.9980469 0
vn 0 0.9980469 0
vt 0.7109375 1
vt 0.7109375 0.7421875
vt 1 0.7421875
vt 0 0.3046875
vt 0.1796875 0
vt 0.1796875 0.3046875
f 25/25/25 26/26/26 27/27/27
f 28/28/28 29/29/29 30/30/30
g polygon2
usemtl r30_h01a
v -28.45703 71.9375 -3.761719
v -30.57813 71.9375 -1.640625
v -20.98047 71.9375 -3.761719
v -18.85938 71.9375 -1.640625
v -20.98047 71.9375 -11.23828
v -18.85938 71.9375 -13.35938
v -28.45703 71.9375 -11.23828
v -30.57813 71.9375 -13.35938
v -28.45703 71.9375 -3.761719
v -30.57813 71.9375 -1.640625
vn 0 0.9980469 0
vn 0 0.9980469 0
vn 0 0.9980469 0
vn 0 0.9980469 0
vn 0 0.9980469 0
vn 0 0.9980469 0
vn 0 0.9980469 0
vn 0 0.9980469 0
vn 0 0.9980469 0
vn 0 0.9980469 0
vt 0.8417969 -0.1640625
vt 0.8320313 -0.1855469
vt 0.8691406 -0.1640625
vt 0.8808594 -0.1855469
vt 0.8691406 -0.1035156
vt 0.8808594 -0.08007813
vt 0.8417969 -0.1035156
vt 0.8320313 -0.08007813
vt 0.8417969 -0.1640625
vt 0.8320313 -0.1855469
f 31/31/31 32/32/32 33/33/33
f 32/32/32 34/34/34 33/33/33
f 33/33/33 34/34/34 35/35/35
f 34/34/34 36/36/36 35/35/35
f 35/35/35 36/36/36 37/37/37
f 36/36/36 38/38/38 37/37/37
f 37/37/37 38/38/38 39/39/39
f 38/38/38 40/40/40 39/39/39
v -10.60938 62.39063 25
v 0 69.84766 14
v -10.60938 62.39063 10
v 0 69.84766 10
v -10.60938 62.39063 -6
v 0 69.84766 -6
v -10.60938 62.39063 -22
v 0 69.84766 -11
vn -0.6308594 0.7773438 0
vn -0.5742188 0.8183594 0
vn -0.6308594 0.7773438 0
vn -0.5742188 0.8183594 0
vn -0.6308594 0.7773438 0
vn -0.5742188 0.8183594 0
vn -0.6308594 0.7773438 0
vn -0.5742188 0.8183594 0
vt -1.845703 0.9042969
vt -1.857422 0.953125
vt -1.859375 0.9042969
vt -1.861328 0.953125
vt -1.873047 0.9042969
vt -1.873047 0.953125
vt -1.898438 0.9042969
vt -1.884766 0.953125
f 41/41/41 42/42/42 43/43/43
f 42/42/42 44/44/44 43/43/43
f 43/43/43 44/44/44 45/45/45
f 44/44/44 46/46/46 45/45/45
f 45/45/45 46/46/46 47/47/47
f 46/46/46 48/48/48 47/47/47
v 10.60938 62.39063 -22
v 0 69.84766 -11
v 10.60938 62.39063 -6
v 0 69.84766 -6
v 10.60938 62.39063 10
v 0 69.84766 10
v 10.60938 62.39063 25
v 0 69.84766 14
vn 0.6308594 0.7773438 0
vn 0.5742188 0.8183594 0
vn 0.6308594 0.7773438 0
vn 0.5742188 0.8183594 0
vn 0.6308594 0.7773438 0
vn 0.5742188 0.8183594 0
vn 0.6308594 0.7773438 0
vn 0.5742188 0.8183594 0
vt -1.845703 0.9082031
vt -1.859375 0.9433594
vt -1.871094 0.9082031
vt -1.871094 0.9433594
vt -1.884766 0.9082031
vt -1.882813 0.9433594
vt -1.898438 0.9082031
vt -1.886719 0.9433594
f 49/49/49 50/50/50 51/51/51
f 50/50/50 52/52/52 51/51/51
f 51/51/51 52/52/52 53/53/53
f 52/52/52 54/54/54 53/53/53
f 53/53/53 54/54/54 55/55/55
f 54/54/54 56/56/56 55/55/55
v 34 36 25
v 36 38.69531 25
v 10.60938 58.32422 25
v 10.60938 62.39063 25
v -10.60938 58.32422 25
v -10.60938 62.39063 25
v -34 36 25
v -36 38.69531 25
vn 0 0 0.9980469
vn 0 0 0.9980469
vn 0 0 0.9980469
vn 0 0 0.9980469
vn 0 0 0.9980469
vn 0 0 0.9980469
vn 0 0 0.9980469
vn 0 0 0.9980469
vt -1.755859 0.03515625
vt -1.753906 0.03320313
vt -1.744141 0.04882813
vt -1.742188 0.04882813
vt -1.744141 0.0625
vt -1.742188 0.0625
vt -1.755859 0.07617188
vt -1.753906 0.078125
f 57/57/57 58/58/58 59/59/59
f 58/58/58 60/60/60 59/59/59
f 59/59/59 60/60/60 61/61/61
f 60/60/60 62/62/62 61/61/61
f 61/61/61 62/62/62 63/63/63
f 62/62/62 64/64/64 63/63/63
v -30.57813 63.57031 -13.35938
v -30.57813 63.57031 -1.640625
v -30.57813 71.9375 -1.640625
v -30.57813 71.9375 -13.35938
v -18.85938 63.57031 -1.640625
v -18.85938 63.57031 -13.35938
v -18.85938 71.9375 -13.35938
v -18.85938 71.9375 -1.640625
v -28.45703 71.9375 -3.761719
v -20.98047 71.9375 -3.761719
v -20.98047 71.9375 -11.23828
v -28.45703 71.9375 -11.23828
v -30.57813 63.57031 -1.640625
v -18.85938 63.57031 -1.640625
v -18.85938 71.9375 -1.640625
v -30.57813 71.9375 -1.640625
v -32.49219 59.47656 -15.27344
v -32.49219 59.47656 0.2734375
v -32.49219 63.1875 0.2734375
v -32.49219 63.1875 -15.27344
v -16.94531 59.47656 0.2734375
v -16.94531 59.47656 -15.27344
v -16.94531 63.1875 -15.27344
v -16.94531 63.1875 0.2734375
v -32.49219 59.47656 0.2734375
v -16.94531 59.47656 0.2734375
v -16.94531 63.1875 0.2734375
v -32.49219 63.1875 0.2734375
v -32.49219 43.11719 -15.27344
v -32.49219 43.11719 0.2734375
v -32.49219 59.47656 0.2734375
v -32.49219 59.47656 -15.27344
v -16.94531 57.16797 0.2734375
v -16.94531 57.16797 -15.27344
v -16.94531 59.47656 -15.27344
v -16.94531 59.47656 0.2734375
v -32.49219 63.1875 0.2734375
v -16.94531 63.1875 0.2734375
v -16.94531 63.1875 -15.27344
v -32.49219 63.1875 -15.27344
v -32.49219 43.11719 0.2734375
v -16.94531 57.16797 0.2734375
v -16.94531 59.47656 0.2734375
v -32.49219 59.47656 0.2734375
v 36 38.69531 10
v 10.60938 62.39063 10
v 10.60938 62.39063 25
v 36 38.69531 25
v -36 38.69531 10
v -10.60938 62.39063 10
v -10.60938 62.39063 -6
v -36 38.69531 -6
v -36 38.69531 -6
v -10.60938 62.39063 -6
v -10.60938 62.39063 -22
v -36 38.69531 -22
v 36 38.69531 -6
v 10.60938 62.39063 -6
v 10.60938 62.39063 10
v 36 38.69531 10
v -10.60938 62.39063 25
v -10.60938 62.39063 10
v -36 38.69531 10
v -36 38.69531 25
v 36 38.69531 -22
v 10.60938 62.39063 -22
v 10.60938 62.39063 -6
v 36 38.69531 -6
vn -1 0 0
vn -1 0 0
vn -1 0 0
vn -1 0 0
vn 0.9980469 0 0
vn 0.9980469 0 0
vn 0.9980469 0 0
vn 0.9980469 0 0
vn 0 0.9980469 0
vn 0 0.9980469 0
vn 0 0.9980469 0
vn 0 0.9980469 0
vn 0 0 0.9980469
vn 0 0 0.9980469
vn 0 0 0.9980469
vn 0 0 0.9980469
vn -1 0 0
vn -1 0 0
vn -1 0 0
vn -1 0 0
vn 0.9980469 0 0
vn 0.9980469 0 0
vn 0.9980469 0 0
vn 0.9980469 0 0
vn 0 0 0.9980469
vn 0 0 0.9980469
vn 0 0 0.9980469
vn 0 0 0.9980469
vn -1 0 0
vn -1 0 0
vn -1 0 0
vn -1 0 0
vn 0.9980469 0 0
vn 0.9980469 0 0
vn 0.9980469 0 0
vn 0.9980469 0 0
vn 0 0.9980469 0
vn 0 0.9980469 0
vn 0 0.9980469 0
vn 0 0.9980469 0
vn 0 0 0.9980469
vn 0 0 0.9980469
vn 0 0 0.9980469
vn 0 0 0.9980469
vn 0.6816406 0.7304688 0
vn 0.6308594 0.7773438 0
vn 0.6308594 0.7773438 0
vn 0.6816406 0.7304688 0
vn -0.6816406 0.7304688 0
vn -0.6308594 0.7773438 0
vn -0.6308594 0.7773438 0
vn -0.6816406 0.7304688 0
vn -0.6816406 0.7304688 0
vn -0.6308594 0.7773438 0
vn -0.6308594 0.7773438 0
vn -0.6816406 0.7304688 0
vn 0.6816406 0.7304688 0
vn 0.6308594 0.7773438 0
vn 0.6308594 0.7773438 0
vn 0.6816406 0.7304688 0
vn -0.6308594 0.7773438 0
vn -0.6308594 0.7773438 0
vn -0.6816406 0.7304688 0
vn -0.6816406 0.7304688 0
vn 0.6816406 0.7304688 0
vn 0.6308594 0.7773438 0
vn 0.6308594 0.7773438 0
vn 0.6816406 0.7304688 0
vt 0.8535156 -0.296875
vt 0.8535156 -0.3398438
vt 0.8808594 -0.3398438
vt 0.8808594 -0.296875
vt 0.8242188 -0.296875
vt 0.8242188 -0.3398438
vt 0.8535156 -0.3398438
vt 0.8535156 -0.296875
vt 0.5683594 -0.1777344
vt 0.7070313 -0.1777344
vt 0.7070313 -0.0390625
vt 0.5683594 -0.0390625
vt 0.8613281 -0.3398438
vt 0.8613281 -0.3828125
vt 0.8886719 -0.3828125
vt 0.8886719 -0.3398438
vt 0.8710938 -0.4003906
vt 0.9160156 -0.4003906
vt 0.9160156 -0.3828125
vt 0.8710938 -0.3828125
vt 0.921875 -0.4199219
vt 0.8554688 -0.4199219
vt 0.8554688 -0.453125
vt 0.921875 -0.453125
vt 0.8242188 -0.4003906
vt 0.8691406 -0.4003906
vt 0.8691406 -0.3828125
vt 0.8242188 -0.3828125
vt 1.517578 -0.9804688
vt 1.988281 -0.9804688
vt 1.988281 -0.5175781
vt 1.517578 -0.5175781
vt 1.517578 -0.59375
vt 1.988281 -0.59375
vt 1.988281 -0.5175781
vt 1.517578 -0.5175781
vt 0.8242188 -0.203125
vt 0.890625 -0.203125
vt 0.890625 -0.0546875
vt 0.8242188 -0.0546875
vt 1.517578 -0.9804688
vt 1.988281 -0.59375
vt 1.988281 -0.5175781
vt 1.517578 -0.5175781
vt -1.509766 0.01953125
vt -1.509766 0.9824219
vt -1.986328 0.9824219
vt -1.986328 0.01953125
vt -1.509766 0.01953125
vt -1.509766 0.9824219
vt -1.986328 0.9824219
vt -1.986328 0.01953125
vt -1.509766 0.01953125
vt -1.509766 0.9824219
vt -1.986328 0.9824219
vt -1.986328 0.01953125
vt -1.509766 0.01953125
vt -1.509766 0.9824219
vt -1.986328 0.9824219
vt -1.986328 0.01953125
vt -1.509766 0.9824219
vt -1.986328 0.9824219
vt -1.986328 0.01953125
vt -1.509766 0.01953125
vt -1.509766 0.01953125
vt -1.509766 0.9824219
vt -1.986328 0.9824219
vt -1.986328 0.01953125
f 65/65/65 66/66/66 67/67/67 68/68/68
f 69/69/69 70/70/70 71/71/71 72/72/72
f 73/73/73 74/74/74 75/75/75 76/76/76
f 77/77/77 78/78/78 79/79/79 80/80/80
f 81/81/81 82/82/82 83/83/83 84/84/84
f 85/85/85 86/86/86 87/87/87 88/88/88
f 89/89/89 90/90/90 91/91/91 92/92/92
f 93/93/93 94/94/94 95/95/95 96/96/96
f 97/97/97 98/98/98 99/99/99 100/100/100
f 101/101/101 102/102/102 103/103/103 104/104/104
f 105/105/105 106/106/106 107/107/107 108/108/108
f 109/109/109 110/110/110 111/111/111 112/112/112
f 113/113/113 114/114/114 115/115/115 116/116/116
f 117/117/117 118/118/118 119/119/119 120/120/120
f 121/121/121 122/122/122 123/123/123 124/124/124
f 125/125/125 126/126/126 127/127/127 128/128/128
f 129/129/129 130/130/130 131/131/131 132/132/132
v 0 69.84766 -11
v 10.60938 62.39063 -22
v -10.60938 62.39063 -22
v 0 69.84766 14
v -10.60938 62.39063 25
v 10.60938 62.39063 25
vn 0 0.828125 -0.5605469
vn 0 0.828125 -0.5605469
vn 0 0.828125 -0.5605469
vn 0 0.828125 0.5605469
vn 0 0.828125 0.5605469
vn 0 0.828125 0.5605469
vt -1.871094 0.9433594
vt -1.876953 0.9199219
vt -1.867188 0.9199219
vt -1.871094 0.9394531
vt -1.876953 0.9238281
vt -1.867188 0.9238281
f 133/133/133 134/134/134 135/135/135
f 136/136/136 137/137/137 138/138/138
g polygon3
usemtl wk_h01_a
v 21 29 17
v 19 26 17
v 21 13 17
v 19 16 17
v 5 13 17
v 7 16 17
v 5 29 17
v 7 26 17
v 21 29 17
v 19 26 17
vn 0 0 0.9980469
vn 0 0 0.9980469
vn 0 0 0.9980469
vn 0 0 0.9980469
vn 0 0 0.9980469
vn 0 0 0.9980469
vn 0 0 0.9980469
vn 0 0 0.9980469
vn 0 0 0.9980469
vn 0 0 0.9980469
vt 0.1005859 -0.7597656
vt 0.09765625 -0.78125
vt 0.1005859 -0.9941406
vt 0.09765625 -0.9570313
vt 0.07226563 -0.9941406
vt 0.07617188 -0.9570313
vt 0.07226563 -0.7597656
vt 0.07617188 -0.78125
vt 0.1005859 -0.7597656
vt 0.09765625 -0.78125
f 139/139/139 140/140/140 141/141/141
f 140/140/140 142/142/142 141/141/141
f 141/141/141 142/142/142 143/143/143
f 142/142/142 144/144/144 143/143/143
f 143/143/143 144/144/144 145/145/145
f 144/144/144 146/146/146 145/145/145
f 145/145/145 146/146/146 147/147/147
f 146/146/146 148/148/148 147/147/147
v 2 8 16
v 30 8 16
v 2 28 16
v 30 38 16
v -18 28 16
v -30 38 16
v -18 8 16
v -30 8 16
vn 0 0 0.9980469
vn 0 0 0.9980469
vn 0 0 0.9980469
vn 0 0 0.9980469
vn 0 0 0.9980469
vn 0 0 0.9980469
vn 0 0 0.9980469
vn 0 0 0.9980469
vt 0.796875 -0.484375
vt 0.984375 -0.484375
vt 0.796875 -0.171875
vt 0.984375 -0.015625
vt 0.625 -0.171875
vt 0.515625 -0.015625
vt 0.625 -0.484375
vt 0.515625 -0.484375
f 149/149/149 150/150/150 151/151/151
f 150/150/150 152/152/152 151/151/151
f 151/151/151 152/152/152 153/153/153
f 152/152/152 154/154/154 153/153/153
f 153/153/153 154/154/154 155/155/155
f 154/154/154 156/156/156 155/155/155
v -18 2 4
v -18 8 16
v -18 2 14
v -18 2 16
vn 0.9980469 0 0
vn 0.9980469 0 0
vn 0.9980469 0 0
vn 0.9980469 0 0
vt 0.3173828 -0.8251953
vt 0.3027344 -0.8173828
vt 0.3056641 -0.8251953
vt 0.3027344 -0.8251953
f 157/157/157 158/158/158 159/159/159
f 158/158/158 160/160/160 159/159/159
v 2 2 16
v 2 8 16
v 2 2 14
v 2 2 4
vn -1 0 0
vn -1 0 0
vn -1 0 0
vn -1 0 0
vt 0.3320313 -0.8251953
vt 0.3320313 -0.8173828
vt 0.3300781 -0.8251953
vt 0.3183594 -0.8251953
f 161/161/161 162/162/162 163/163/163
f 162/162/162 164/164/164 163/163/163
v -30 8 16
v -30 8 19
v -30 34 19
v -30 34 16
v -24 8 19
v -24 8 16
v -24 34 16
v -24 34 19
v -30 8 19
v -24 8 19
v -24 34 19
v -30 34 19
v -30 2 16
v -30 2 19
v -30 8 19
v -30 8 16
v -24 2 19
v -24 2 16
v -24 8 16
v -24 8 19
v -30 2 19
v -24 2 19
v -24 8 19
v -30 8 19
v 0 38 16
v 0 38 19
v 30 38 19
v 30 38 16
v 0 38 19
v 0 34 19
v 30 34 19
v 30 38 19
v -30 34 16
v -30 34 19
v -30 38 19
v -30 38 16
v 24 8 16
v 24 8 19
v 24 34 19
v 24 34 16
v -30 38 19
v 0 38 19
v 0 38 16
v -30 38 16
v -30 34 19
v 0 34 19
v 0 38 19
v -30 38 19
v 2 2 4
v 2 8 16
v 2 28 16
v 2 28 4
v 30 8 19
v 30 8 16
v 30 34 16
v 30 34 19
v 24 8 19
v 30 8 19
v 30 34 19
v 24 34 19
v -18 8 16
v -30 8 16
v -30 2 16
v -18 2 16
v -30 8 -20
v -30 8 16
v -30 38 16
v -30 38 -20
v 30 8 16
v 30 8 -20
v 30 38 -20
v 30 38 16
v 30 2 19
v 30 2 16
v 30 8 16
v 30 8 19
v -18 2 14
v 2 2 14
v 2 2 4
v -18 2 4
v -18 2 4
v -18 28 4
v -18 28 16
v -18 8 16
v 30 2 16
v 30 8 16
v 2 8 16
v 2 2 16
v 2 2 4
v 2 28 4
v -18 28 4
v -18 2 4
v -30 2 -20
v -30 2 16
v -30 8 16
v -30 8 -20
v 30 2 16
v 30 2 -20
v 30 8 -20
v 30 8 16
v 30 34 19
v 30 34 16
v 30 38 16
v 30 38 19
v -6 42 17
v 6 42 17
v 6 51 17
v -6 51 17
v 24 2 19
v 30 2 19
v 30 8 19
v 24 8 19
v 24 2 16
v 24 2 19
v 24 8 19
v 24 8 16
vn -1 0 0
vn -1 0 0
vn -1 0 0
vn -1 0 0
vn 0.9980469 0 0
vn 0.9980469 0 0
vn 0.9980469 0 0
vn 0.9980469 0 0
vn 0 0 0.9980469
vn 0 0 0.9980469
vn 0 0 0.9980469
vn 0 0 0.9980469
vn -1 0 0
vn -1 0 0
vn -1 0 0
vn -1 0 0
vn 0.9980469 0 0
vn 0.9980469 0 0
vn 0.9980469 0 0
vn 0.9980469 0 0
vn 0 0 0.9980469
vn 0 0 0.9980469
vn 0 0 0.9980469
vn 0 0 0.9980469
vn 0 0.9980469 0
vn 0 0.9980469 0
vn 0 0.9980469 0
vn 0 0.9980469 0
vn 0 0 0.9980469
vn 0 0 0.9980469
vn 0 0 0.9980469
vn 0 0 0.9980469
vn -1 0 0
vn -1 0 0
vn -1 0 0
vn -1 0 0
vn -1 0 0
vn -1 0 0
vn -1 0 0
vn -1 0 0
vn 0 0.9980469 0
vn 0 0.9980469 0
vn 0 0.9980469 0
vn 0 0.9980469 0
vn 0 0 0.9980469
vn 0 0 0.9980469
vn 0 0 0.9980469
vn 0 0 0.9980469
vn -1 0 0
vn -1 0 0
vn -1 0 0
vn -1 0 0
vn 0.9980469 0 0
vn 0.9980469 0 0
vn 0.9980469 0 0
vn 0.9980469 0 0
vn 0 0 0.9980469
vn 0 0 0.9980469
vn 0 0 0.9980469
vn 0 0 0.9980469
vn 0 0 0.9980469
vn 0 0 0.9980469
vn 0 0 0.9980469
vn 0 0 0.9980469
vn -1 0 0
vn -1 0 0
vn -1 0 0
vn -1 0 0
vn 0.9980469 0 0
vn 0.9980469 0 0
vn 0.9980469 0 0
vn 0.9980469 0 0
vn 0.9980469 0 0
vn 0.9980469 0 0
vn 0.9980469 0 0
vn 0.9980469 0 0
vn 0 0.9980469 0
vn 0 0.9980469 0
vn 0 0.9980469 0
vn 0 0.9980469 0
vn 0.9980469 0 0
vn 0.9980469 0 0
vn 0.9980469 0 0
vn 0.9980469 0 0
vn 0 0 0.9980469
vn 0 0 0.9980469
vn 0 0 0.9980469
vn 0 0 0.9980469
vn 0 0 0.9980469
vn 0 0 0.9980469
vn 0 0 0.9980469
vn 0 0 0.9980469
vn -1 0 0
vn -1 0 0
vn -1 0 0
vn -1 0 0
vn 0.9980469 0 0
vn 0.9980469 0 0
vn 0.9980469 0 0
vn 0.9980469 0 0
vn 0.9980469 0 0
vn 0.9980469 0 0
vn 0.9980469 0 0
vn 0.9980469 0 0
vn 0 0 0.9980469
vn 0 0 0.9980469
vn 0 0 0.9980469
vn 0 0 0.9980469
vn 0 0 0.9980469
vn 0 0 0.9980469
vn 0 0 0.9980469
vn 0 0 0.9980469
vn -1 0 0
vn -1 0 0
vn -1 0 0
vn -1 0 0
vt 0.4267578 -0.1601563
vt 0.4482422 -0.1601563
vt 0.4482422 -0.08007813
vt 0.4267578 -0.08007813
vt 0.4257813 -0.1601563
vt 0.4462891 -0.1601563
vt 0.4462891 -0.08007813
vt 0.4257813 -0.08007813
vt 0.3994141 -0.4882813
vt 0.4785156 -0.4882813
vt 0.4785156 -0.01855469
vt 0.3994141 -0.01855469
vt 0.421875 -0.65625
vt 0.453125 -0.65625
vt 0.453125 -0.640625
vt 0.421875 -0.640625
vt 0.421875 -0.65625
vt 0.453125 -0.65625
vt 0.453125 -0.640625
vt 0.421875 -0.640625
vt 0.390625 -0.734375
vt 0.484375 -0.734375
vt 0.484375 -0.640625
vt 0.390625 -0.640625
vt 0.4609375 -0.3857422
vt 0.4111328 -0.3857422
vt 0.4111328 -0.078125
vt 0.4609375 -0.078125
vt 0.4648438 -0.3837891
vt 0.4111328 -0.3837891
vt 0.4111328 -0.07617188
vt 0.4648438 -0.07617188
vt 0.6425781 -0.06347656
vt 0.6923828 -0.06347656
vt 0.6923828 -0.01464844
vt 0.6425781 -0.01464844
vt 0.4267578 -0.1601563
vt 0.4482422 -0.1601563
vt 0.4482422 -0.08007813
vt 0.4267578 -0.08007813
vt 0.4111328 -0.07714844
vt 0.4111328 -0.3847656
vt 0.4609375 -0.3847656
vt 0.4609375 -0.07714844
vt 0.4111328 -0.078125
vt 0.4111328 -0.3857422
vt 0.4648438 -0.3857422
vt 0.4648438 -0.078125
vt 0.3183594 -0.8251953
vt 0.3320313 -0.8173828
vt 0.3320313 -0.7851563
vt 0.3183594 -0.7851563
vt 0.4257813 -0.1601563
vt 0.4462891 -0.1601563
vt 0.4462891 -0.08007813
vt 0.4257813 -0.08007813
vt 0.3994141 -0.4882813
vt 0.4785156 -0.4882813
vt 0.4785156 -0.01855469
vt 0.3994141 -0.01855469
vt 0.484375 -0.640625
vt 0.390625 -0.640625
vt 0.390625 -0.734375
vt 0.484375 -0.734375
vt 0.515625 -0.484375
vt 0.546875 -0.484375
vt 0.546875 -0.015625
vt 0.515625 -0.015625
vt 0.515625 -0.484375
vt 0.546875 -0.484375
vt 0.546875 -0.015625
vt 0.515625 -0.015625
vt 0.421875 -0.65625
vt 0.453125 -0.65625
vt 0.453125 -0.640625
vt 0.421875 -0.640625
vt 0.140625 -0.984375
vt 0.484375 -0.984375
vt 0.484375 -0.765625
vt 0.140625 -0.765625
vt 0.3173828 -0.8251953
vt 0.3173828 -0.7851563
vt 0.3027344 -0.7851563
vt 0.3027344 -0.8173828
vt 0.484375 -0.734375
vt 0.484375 -0.640625
vt 0.390625 -0.640625
vt 0.390625 -0.734375
vt 0.3017578 -0.8251953
vt 0.3017578 -0.7851563
vt 0.2783203 -0.7851563
vt 0.2783203 -0.8251953
vt 0.4345703 -0.6601563
vt 0.4472656 -0.6601563
vt 0.4472656 -0.6503906
vt 0.4345703 -0.6503906
vt 0.4345703 -0.6601563
vt 0.4472656 -0.6601563
vt 0.4472656 -0.6503906
vt 0.4345703 -0.6503906
vt 0.6425781 -0.06738281
vt 0.6923828 -0.06738281
vt 0.6923828 -0.01464844
vt 0.6425781 -0.01464844
vt 0.3818359 -0.6171875
vt 0.4941406 -0.6171875
vt 0.4941406 -0.5058594
vt 0.3818359 -0.5058594
vt 0.390625 -0.734375
vt 0.484375 -0.734375
vt 0.484375 -0.640625
vt 0.390625 -0.640625
vt 0.421875 -0.65625
vt 0.453125 -0.65625
vt 0.453125 -0.640625
vt 0.421875 -0.640625
f 165/165/165 166/166/166 167/167/167 168/168/168
f 169/169/169 170/170/170 171/171/171 172/172/172
f 173/173/173 174/174/174 175/175/175 176/176/176
f 177/177/177 178/178/178 179/179/179 180/180/180
f 181/181/181 182/182/182 183/183/183 184/184/184
f 185/185/185 186/186/186 187/187/187 188/188/188
f 189/189/189 190/190/190 191/191/191 192/192/192
f 193/193/193 194/194/194 195/195/195 196/196/196
f 197/197/197 198/198/198 199/199/199 200/200/200
f 201/201/201 202/202/202 203/203/203 204/204/204
f 205/205/205 206/206/206 207/207/207 208/208/208
f 209/209/209 210/210/210 211/211/211 212/212/212
f 213/213/213 214/214/214 215/215/215 216/216/216
f 217/217/217 218/218/218 219/219/219 220/220/220
f 221/221/221 222/222/222 223/223/223 224/224/224
f 225/225/225 226/226/226 227/227/227 228/228/228
f 229/229/229 230/230/230 231/231/231 232/232/232
f 233/233/233 234/234/234 235/235/235 236/236/236
f 237/237/237 238/238/238 239/239/239 240/240/240
f 241/241/241 242/242/242 243/243/243 244/244/244
f 245/245/245 246/246/246 247/247/247 248/248/248
f 249/249/249 250/250/250 251/251/251 252/252/252
f 253/253/253 254/254/254 255/255/255 256/256/256
f 257/257/257 258/258/258 259/259/259 260/260/260
f 261/261/261 262/262/262 263/263/263 264/264/264
f 265/265/265 266/266/266 267/267/267 268/268/268
f 269/269/269 270/270/270 271/271/271 272/272/272
f 273/273/273 274/274/274 275/275/275 276/276/276
f 277/277/277 278/278/278 279/279/279 280/280/280
v 0 66 16
v -30 38 16
v 30 38 16
vn 0 0 0.9980469
vn 0 0 0.9980469
vn 0 0 0.9980469
vt 0.75 -0.515625
vt 0.515625 -0.984375
vt 0.984375 -0.984375
f 281/281/281 282/282/282 283/283/283
